<svg xmlns="http://www.w3.org/2000/svg" version="1.1" xmlns:xlink="http://www.w3.org/1999/xlink" xmlns:svgjs="http://svgjs.dev/svgjs" viewBox="0 0 1422 800"><g fill="hsl(265, 55%, 20%)" transform="matrix(1,0,0,1,0,0)"><circle r="2.5" cx="716" cy="400" opacity="0.88"></circle><circle r="2.5" cx="715" cy="404" opacity="0.81"></circle><circle r="2.5" cx="711" cy="407" opacity="0.18"></circle><circle r="2.5" cx="706" cy="405" opacity="0.37"></circle><circle r="2.5" cx="703" cy="400" opacity="0.12"></circle><circle r="2.5" cx="705" cy="393" opacity="0.95"></circle><circle r="2.5" cx="712" cy="390" opacity="0.20"></circle><circle r="2.5" cx="719" cy="393" opacity="0.56"></circle><circle r="2.5" cx="722" cy="401" opacity="0.23"></circle><circle r="2.5" cx="718" cy="410" opacity="0.92"></circle><circle r="2.5" cx="709" cy="413" opacity="0.93"></circle><circle r="2.5" cx="700" cy="408" opacity="0.75"></circle><circle r="2.5" cx="697" cy="397" opacity="0.88"></circle><circle r="2.5" cx="702" cy="387" opacity="0.54"></circle><circle r="2.5" cx="714" cy="384" opacity="0.37"></circle><circle r="2.5" cx="725" cy="391" opacity="0.83"></circle><circle r="2.5" cx="728" cy="404" opacity="0.13"></circle><circle r="2.5" cx="721" cy="416" opacity="0.14"></circle><circle r="2.5" cx="706" cy="419" opacity="0.50"></circle><circle r="2.5" cx="693" cy="410" opacity="0.62"></circle><circle r="2.5" cx="691" cy="394" opacity="0.59"></circle><circle r="2.5" cx="701" cy="381" opacity="1.00"></circle><circle r="2.5" cx="718" cy="379" opacity="0.78"></circle><circle r="2.5" cx="732" cy="390" opacity="0.64"></circle><circle r="2.5" cx="734" cy="408" opacity="0.31"></circle><circle r="2.5" cx="721" cy="423" opacity="0.47"></circle><circle r="2.5" cx="701" cy="424" opacity="0.78"></circle><circle r="2.5" cx="686" cy="410" opacity="0.24"></circle><circle r="2.5" cx="686" cy="389" opacity="0.19"></circle><circle r="2.5" cx="701" cy="374" opacity="0.69"></circle><circle r="2.5" cx="723" cy="374" opacity="0.97"></circle><circle r="2.5" cx="739" cy="390" opacity="0.60"></circle><circle r="2.5" cx="738" cy="414" opacity="0.42"></circle><circle r="2.5" cx="720" cy="430" opacity="0.11"></circle><circle r="2.5" cx="696" cy="428" opacity="0.66"></circle><circle r="2.5" cx="679" cy="409" opacity="0.31"></circle><circle r="2.5" cx="682" cy="383" opacity="0.28"></circle><circle r="2.5" cx="703" cy="366" opacity="0.26"></circle><circle r="2.5" cx="730" cy="370" opacity="0.53"></circle><circle r="2.5" cx="746" cy="392" opacity="0.52"></circle><circle r="2.5" cx="742" cy="420" opacity="0.18"></circle><circle r="2.5" cx="718" cy="437" opacity="0.22"></circle><circle r="2.5" cx="689" cy="432" opacity="0.34"></circle><circle r="2.5" cx="672" cy="406" opacity="0.96"></circle><circle r="2.5" cx="679" cy="376" opacity="0.50"></circle><circle r="2.5" cx="706" cy="359" opacity="0.31"></circle><circle r="2.5" cx="737" cy="367" opacity="0.41"></circle><circle r="2.5" cx="753" cy="396" opacity="0.45"></circle><circle r="2.5" cx="744" cy="428" opacity="0.35"></circle><circle r="2.5" cx="714" cy="444" opacity="0.59"></circle><circle r="2.5" cx="681" cy="434" opacity="0.24"></circle><circle r="2.5" cx="665" cy="402" opacity="0.50"></circle><circle r="2.5" cx="677" cy="368" opacity="0.99"></circle><circle r="2.5" cx="710" cy="353" opacity="0.76"></circle><circle r="3" cx="745" cy="366" opacity="0.71"></circle><circle r="3" cx="760" cy="401" opacity="0.82"></circle><circle r="3" cx="745" cy="436" opacity="0.86"></circle><circle r="3" cx="709" cy="451" opacity="0.81"></circle><circle r="3" cx="672" cy="434" opacity="0.31"></circle><circle r="3" cx="659" cy="396" opacity="0.63"></circle><circle r="3" cx="677" cy="359" opacity="0.69"></circle><circle r="3" cx="717" cy="346" opacity="0.35"></circle><circle r="3" cx="754" cy="366" opacity="0.75"></circle><circle r="3" cx="766" cy="407" opacity="0.41"></circle><circle r="3" cx="744" cy="445" opacity="0.76"></circle><circle r="3" cx="702" cy="456" opacity="0.60"></circle><circle r="3" cx="664" cy="433" opacity="0.93"></circle><circle r="3" cx="653" cy="389" opacity="0.12"></circle><circle r="3" cx="679" cy="350" opacity="0.11"></circle><circle r="3" cx="724" cy="341" opacity="0.88"></circle><circle r="3" cx="763" cy="368" opacity="0.27"></circle><circle r="3" cx="771" cy="415" opacity="0.22"></circle><circle r="3" cx="742" cy="454" opacity="0.73"></circle><circle r="3" cx="693" cy="461" opacity="0.28"></circle><circle r="3" cx="654" cy="430" opacity="0.64"></circle><circle r="3" cx="649" cy="380" opacity="0.20"></circle><circle r="3" cx="682" cy="341" opacity="0.16"></circle><circle r="3" cx="733" cy="337" opacity="0.82"></circle><circle r="3" cx="772" cy="372" opacity="0.56"></circle><circle r="3" cx="775" cy="425" opacity="0.45"></circle><circle r="3" cx="738" cy="463" opacity="0.54"></circle><circle r="3" cx="684" cy="464" opacity="0.70"></circle><circle r="3" cx="645" cy="426" opacity="0.73"></circle><circle r="3" cx="646" cy="370" opacity="0.61"></circle><circle r="3" cx="687" cy="332" opacity="0.63"></circle><circle r="3" cx="743" cy="334" opacity="0.67"></circle><circle r="3" cx="781" cy="377" opacity="0.92"></circle><circle r="3" cx="777" cy="435" opacity="0.40"></circle><circle r="3" cx="732" cy="472" opacity="0.19"></circle><circle r="3" cx="674" cy="466" opacity="0.27"></circle><circle r="3" cx="637" cy="420" opacity="0.42"></circle><circle r="3" cx="644" cy="360" opacity="0.69"></circle><circle r="3" cx="693" cy="323" opacity="0.62"></circle><circle r="3" cx="754" cy="333" opacity="0.72"></circle><circle r="3" cx="790" cy="384" opacity="0.37"></circle><circle r="3" cx="778" cy="446" opacity="0.50"></circle><circle r="3" cx="725" cy="481" opacity="0.13"></circle><circle r="3" cx="662" cy="467" opacity="0.13"></circle><circle r="3" cx="628" cy="412" opacity="0.70"></circle><circle r="3" cx="644" cy="348" opacity="0.89"></circle><circle r="3" cx="702" cy="316" opacity="0.21"></circle><circle r="3" cx="766" cy="334" opacity="0.94"></circle><circle r="3" cx="797" cy="393" opacity="0.68"></circle><circle r="3" cx="777" cy="458" opacity="0.49"></circle><circle r="3" cx="716" cy="488" opacity="0.18"></circle><circle r="3" cx="650" cy="465" opacity="0.37"></circle><circle r="3" cx="621" cy="402" opacity="0.86"></circle><circle r="3" cx="646" cy="336" opacity="0.85"></circle><circle r="3" cx="712" cy="309" opacity="0.37"></circle><circle r="3" cx="778" cy="336" opacity="0.85"></circle><circle r="3" cx="804" cy="403" opacity="0.59"></circle><circle r="3" cx="774" cy="470" opacity="0.92"></circle><circle r="3" cx="705" cy="494" opacity="0.21"></circle><circle r="3" cx="638" cy="462" opacity="0.48"></circle><circle r="3" cx="615" cy="391" opacity="0.54"></circle><circle r="3" cx="650" cy="324" opacity="0.70"></circle><circle r="3" cx="723" cy="303" opacity="0.30"></circle><circle r="3" cx="790" cy="341" opacity="0.42"></circle><circle r="3" cx="809" cy="415" opacity="0.84"></circle><circle r="3" cx="769" cy="482" opacity="0.87"></circle><circle r="3" cx="693" cy="499" opacity="0.23"></circle><circle r="3" cx="626" cy="457" opacity="0.90"></circle><circle r="3" cx="611" cy="379" opacity="0.33"></circle><circle r="3" cx="656" cy="312" opacity="0.67"></circle><circle r="3" cx="736" cy="299" opacity="0.61"></circle><circle r="3" cx="802" cy="347" opacity="0.81"></circle><circle r="3" cx="813" cy="428" opacity="0.37"></circle><circle r="3" cx="762" cy="493" opacity="0.62"></circle><circle r="3" cx="679" cy="503" opacity="0.57"></circle><circle r="3" cx="615" cy="449" opacity="0.20"></circle><circle r="3" cx="608" cy="365" opacity="0.21"></circle><circle r="3" cx="664" cy="301" opacity="0.13"></circle><circle r="3" cx="750" cy="296" opacity="0.68"></circle><circle r="3" cx="813" cy="355" opacity="0.81"></circle><circle r="3" cx="815" cy="442" opacity="0.58"></circle><circle r="3" cx="753" cy="505" opacity="0.94"></circle><circle r="3" cx="665" cy="504" opacity="0.48"></circle><circle r="3" cx="604" cy="440" opacity="0.59"></circle><circle r="3" cx="607" cy="350" opacity="0.47"></circle><circle r="3" cx="674" cy="290" opacity="0.70"></circle><circle r="3" cx="764" cy="296" opacity="0.55"></circle><circle r="3" cx="824" cy="365" opacity="0.46"></circle><circle r="3" cx="815" cy="457" opacity="0.91"></circle><circle r="3" cx="743" cy="515" opacity="0.46"></circle><circle r="3" cx="650" cy="504" opacity="0.96"></circle><circle r="3" cx="593" cy="429" opacity="0.48"></circle><circle r="3" cx="608" cy="335" opacity="0.45"></circle><circle r="3" cx="685" cy="280" opacity="0.28"></circle><circle r="3" cx="780" cy="297" opacity="0.86"></circle><circle r="3" cx="833" cy="378" opacity="0.31"></circle><circle r="3" cx="813" cy="473" opacity="0.74"></circle><circle r="3" cx="730" cy="524" opacity="0.25"></circle><circle r="3" cx="635" cy="501" opacity="0.23"></circle><circle r="3" cx="585" cy="416" opacity="0.87"></circle><circle r="3" cx="611" cy="320" opacity="0.71"></circle><circle r="3" cx="699" cy="272" opacity="0.43"></circle><circle r="3" cx="795" cy="301" opacity="0.13"></circle><circle r="3" cx="841" cy="392" opacity="0.30"></circle><circle r="3" cx="808" cy="488" opacity="0.62"></circle><circle r="3" cx="716" cy="532" opacity="0.56"></circle><circle r="3" cx="619" cy="496" opacity="0.63"></circle><circle r="3" cx="577" cy="401" opacity="0.30"></circle><circle r="3.5" cx="617" cy="304" opacity="0.89"></circle><circle r="3.5" cx="714" cy="265" opacity="0.83"></circle><circle r="3.5" cx="811" cy="307" opacity="0.67"></circle><circle r="3.5" cx="848" cy="407" opacity="0.39"></circle><circle r="3.5" cx="802" cy="504" opacity="0.14"></circle><circle r="3.5" cx="700" cy="538" opacity="0.59"></circle><circle r="3.5" cx="603" cy="489" opacity="0.71"></circle><circle r="3.5" cx="572" cy="384" opacity="0.45"></circle><circle r="3.5" cx="625" cy="289" opacity="0.54"></circle><circle r="3.5" cx="731" cy="260" opacity="0.97"></circle><circle r="3.5" cx="826" cy="316" opacity="0.44"></circle><circle r="3.5" cx="852" cy="424" opacity="0.61"></circle><circle r="3.5" cx="793" cy="519" opacity="0.55"></circle><circle r="3.5" cx="682" cy="542" opacity="0.15"></circle><circle r="3.5" cx="588" cy="479" opacity="0.69"></circle><circle r="3.5" cx="568" cy="367" opacity="0.91"></circle><circle r="3.5" cx="635" cy="274" opacity="0.17"></circle><circle r="3.5" cx="749" cy="257" opacity="0.26"></circle><circle r="3.5" cx="841" cy="327" opacity="0.31"></circle><circle r="3.5" cx="855" cy="442" opacity="0.77"></circle><circle r="3.5" cx="781" cy="533" opacity="0.67"></circle><circle r="3.5" cx="664" cy="544" opacity="0.43"></circle><circle r="3.5" cx="574" cy="467" opacity="0.78"></circle><circle r="3.5" cx="567" cy="348" opacity="0.76"></circle><circle r="3.5" cx="647" cy="260" opacity="0.38"></circle><circle r="3.5" cx="768" cy="256" opacity="0.13"></circle><circle r="3.5" cx="854" cy="340" opacity="0.68"></circle><circle r="3.5" cx="855" cy="461" opacity="0.39"></circle><circle r="3.5" cx="767" cy="547" opacity="0.38"></circle><circle r="3.5" cx="645" cy="543" opacity="0.71"></circle><circle r="3.5" cx="561" cy="453" opacity="0.68"></circle><circle r="3.5" cx="568" cy="329" opacity="0.70"></circle><circle r="3.5" cx="662" cy="247" opacity="0.77"></circle><circle r="3.5" cx="787" cy="258" opacity="0.50"></circle><circle r="3.5" cx="867" cy="355" opacity="0.49"></circle><circle r="3.5" cx="852" cy="481" opacity="0.62"></circle><circle r="3.5" cx="751" cy="558" opacity="0.54"></circle><circle r="3.5" cx="625" cy="540" opacity="0.33"></circle><circle r="3.5" cx="550" cy="436" opacity="0.89"></circle><circle r="3.5" cx="572" cy="309" opacity="0.82"></circle><circle r="3.5" cx="679" cy="236" opacity="0.17"></circle><circle r="3.5" cx="807" cy="263" opacity="0.35"></circle><circle r="3.5" cx="877" cy="373" opacity="0.31"></circle><circle r="3.5" cx="847" cy="501" opacity="0.45"></circle><circle r="3.5" cx="734" cy="568" opacity="0.44"></circle><circle r="3.5" cx="606" cy="534" opacity="0.17"></circle><circle r="3.5" cx="541" cy="418" opacity="0.55"></circle><circle r="3.5" cx="579" cy="290" opacity="0.73"></circle><circle r="3.5" cx="698" cy="227" opacity="0.64"></circle><circle r="3.5" cx="826" cy="270" opacity="0.54"></circle><circle r="3.5" cx="885" cy="392" opacity="0.77"></circle><circle r="3.5" cx="839" cy="520" opacity="0.46"></circle><circle r="3.5" cx="714" cy="576" opacity="0.39"></circle><circle r="3.5" cx="586" cy="525" opacity="0.58"></circle><circle r="3.5" cx="533" cy="398" opacity="0.10"></circle><circle r="3.5" cx="588" cy="270" opacity="0.70"></circle><circle r="3.5" cx="718" cy="221" opacity="0.43"></circle><circle r="3.5" cx="845" cy="280" opacity="0.26"></circle><circle r="3.5" cx="892" cy="413" opacity="0.37"></circle><circle r="3.5" cx="828" cy="539" opacity="0.86"></circle><circle r="3.5" cx="693" cy="582" opacity="0.51"></circle><circle r="3.5" cx="567" cy="514" opacity="0.76"></circle><circle r="3.5" cx="528" cy="376" opacity="0.60"></circle><circle r="3.5" cx="600" cy="252" opacity="0.92"></circle><circle r="3.5" cx="740" cy="217" opacity="0.44"></circle><circle r="3.5" cx="864" cy="293" opacity="0.13"></circle><circle r="3.5" cx="895" cy="435" opacity="0.69"></circle><circle r="3.5" cx="815" cy="557" opacity="0.97"></circle><circle r="3.5" cx="670" cy="585" opacity="0.32"></circle><circle r="3.5" cx="550" cy="500" opacity="0.63"></circle><circle r="3.5" cx="526" cy="354" opacity="0.77"></circle><circle r="3.5" cx="615" cy="234" opacity="0.38"></circle><circle r="3.5" cx="763" cy="215" opacity="0.30"></circle><circle r="3.5" cx="881" cy="308" opacity="0.64"></circle><circle r="3.5" cx="896" cy="458" opacity="0.60"></circle><circle r="3.5" cx="798" cy="574" opacity="0.45"></circle><circle r="3.5" cx="647" cy="585" opacity="0.82"></circle><circle r="3.5" cx="533" cy="483" opacity="0.19"></circle><circle r="3.5" cx="527" cy="330" opacity="0.27"></circle><circle r="3.5" cx="633" cy="218" opacity="0.76"></circle><circle r="3.5" cx="787" cy="216" opacity="0.54"></circle><circle r="3.5" cx="896" cy="326" opacity="0.95"></circle><circle r="3.5" cx="894" cy="482" opacity="0.93"></circle><circle r="3.5" cx="780" cy="589" opacity="0.46"></circle><circle r="3.5" cx="623" cy="582" opacity="0.16"></circle><circle r="3.5" cx="519" cy="464" opacity="0.81"></circle><circle r="3.5" cx="531" cy="306" opacity="0.31"></circle><circle r="3.5" cx="652" cy="204" opacity="0.62"></circle><circle r="3.5" cx="811" cy="221" opacity="0.86"></circle><circle r="3.5" cx="910" cy="347" opacity="0.22"></circle><circle r="3.5" cx="888" cy="506" opacity="0.69"></circle><circle r="3.5" cx="759" cy="602" opacity="0.94"></circle><circle r="3.5" cx="599" cy="576" opacity="0.79"></circle><circle r="3.5" cx="506" cy="442" opacity="0.48"></circle><circle r="3.5" cx="537" cy="282" opacity="0.19"></circle><circle r="3.5" cx="674" cy="193" opacity="0.17"></circle><circle r="3.5" cx="835" cy="229" opacity="0.49"></circle><circle r="3.5" cx="921" cy="369" opacity="0.87"></circle><circle r="3.5" cx="880" cy="530" opacity="0.86"></circle><circle r="3.5" cx="736" cy="612" opacity="0.97"></circle><circle r="3.5" cx="575" cy="566" opacity="0.56"></circle><circle r="3.5" cx="496" cy="419" opacity="0.97"></circle><circle r="3.5" cx="548" cy="259" opacity="0.85"></circle><circle r="3.5" cx="699" cy="183" opacity="0.79"></circle><circle r="3.5" cx="858" cy="240" opacity="0.62"></circle><circle r="3.5" cx="930" cy="394" opacity="0.89"></circle><circle r="3.5" cx="868" cy="553" opacity="0.55"></circle><circle r="4" cx="711" cy="620" opacity="0.16"></circle><circle r="4" cx="552" cy="554" opacity="0.97"></circle><circle r="4" cx="489" cy="393" opacity="0.96"></circle><circle r="4" cx="561" cy="236" opacity="0.46"></circle><circle r="4" cx="724" cy="177" opacity="0.26"></circle><circle r="4" cx="881" cy="254" opacity="1.00"></circle><circle r="4" cx="935" cy="420" opacity="0.99"></circle><circle r="4" cx="853" cy="575" opacity="0.69"></circle><circle r="4" cx="684" cy="625" opacity="0.28"></circle><circle r="4" cx="530" cy="538" opacity="0.20"></circle><circle r="4" cx="485" cy="367" opacity="0.33"></circle><circle r="4" cx="577" cy="214" opacity="0.40"></circle><circle r="4" cx="751" cy="174" opacity="0.43"></circle><circle r="4" cx="902" cy="271" opacity="0.69"></circle><circle r="4" cx="938" cy="447" opacity="0.88"></circle><circle r="4" cx="835" cy="596" opacity="0.48"></circle><circle r="4" cx="657" cy="627" opacity="0.34"></circle><circle r="4" cx="510" cy="519" opacity="0.51"></circle><circle r="4" cx="485" cy="339" opacity="0.54"></circle><circle r="4" cx="597" cy="194" opacity="0.60"></circle><circle r="4" cx="779" cy="174" opacity="0.62"></circle><circle r="4" cx="921" cy="291" opacity="0.82"></circle><circle r="4" cx="937" cy="475" opacity="0.90"></circle><circle r="4" cx="814" cy="615" opacity="0.33"></circle><circle r="4" cx="629" cy="625" opacity="0.21"></circle><circle r="4" cx="492" cy="498" opacity="0.64"></circle><circle r="4" cx="487" cy="310" opacity="0.66"></circle><circle r="4" cx="619" cy="176" opacity="0.44"></circle><circle r="4" cx="808" cy="177" opacity="0.37"></circle><circle r="4" cx="939" cy="314" opacity="0.24"></circle><circle r="4" cx="932" cy="504" opacity="0.82"></circle><circle r="4" cx="791" cy="632" opacity="0.79"></circle><circle r="4" cx="600" cy="619" opacity="0.15"></circle><circle r="4" cx="476" cy="473" opacity="0.77"></circle><circle r="4" cx="494" cy="282" opacity="0.83"></circle><circle r="4" cx="644" cy="161" opacity="0.99"></circle><circle r="4" cx="836" cy="185" opacity="0.28"></circle><circle r="4" cx="953" cy="340" opacity="0.31"></circle><circle r="4" cx="924" cy="532" opacity="0.65"></circle><circle r="4" cx="765" cy="646" opacity="0.25"></circle><circle r="4" cx="572" cy="610" opacity="0.29"></circle><circle r="4" cx="462" cy="447" opacity="0.98"></circle><circle r="4" cx="504" cy="254" opacity="0.83"></circle><circle r="4" cx="671" cy="149" opacity="0.19"></circle><circle r="4" cx="864" cy="196" opacity="0.97"></circle><circle r="4" cx="965" cy="367" opacity="0.21"></circle><circle r="4" cx="912" cy="560" opacity="0.34"></circle><circle r="4" cx="736" cy="657" opacity="0.58"></circle><circle r="4" cx="544" cy="597" opacity="0.33"></circle><circle r="4" cx="452" cy="418" opacity="0.67"></circle><circle r="4" cx="517" cy="226" opacity="0.31"></circle><circle r="4" cx="701" cy="139" opacity="0.33"></circle><circle r="4" cx="891" cy="210" opacity="0.39"></circle><circle r="4" cx="974" cy="397" opacity="0.65"></circle><circle r="4" cx="897" cy="587" opacity="0.69"></circle><circle r="4" cx="706" cy="664" opacity="0.43"></circle><circle r="4" cx="517" cy="581" opacity="0.81"></circle><circle r="4" cx="446" cy="387" opacity="0.30"></circle><circle r="4" cx="535" cy="200" opacity="0.32"></circle><circle r="4" cx="732" cy="133" opacity="0.59"></circle><circle r="4" cx="917" cy="228" opacity="0.61"></circle><circle r="4" cx="978" cy="429" opacity="0.64"></circle><circle r="4" cx="877" cy="612" opacity="0.50"></circle><circle r="4" cx="674" cy="668" opacity="0.75"></circle><circle r="4" cx="493" cy="561" opacity="0.94"></circle><circle r="4" cx="442" cy="355" opacity="0.61"></circle><circle r="4" cx="555" cy="176" opacity="0.85"></circle><circle r="4" cx="764" cy="131" opacity="0.80"></circle><circle r="4" cx="941" cy="250" opacity="0.84"></circle><circle r="4" cx="980" cy="461" opacity="0.82"></circle><circle r="4" cx="855" cy="636" opacity="0.43"></circle><circle r="4" cx="642" cy="668" opacity="0.25"></circle><circle r="4" cx="470" cy="538" opacity="0.23"></circle><circle r="4" cx="443" cy="323" opacity="0.36"></circle><circle r="4" cx="580" cy="153" opacity="0.39"></circle><circle r="4" cx="797" cy="133" opacity="0.65"></circle><circle r="4" cx="963" cy="275" opacity="0.60"></circle><circle r="4" cx="977" cy="494" opacity="0.16"></circle><circle r="4" cx="829" cy="657" opacity="0.14"></circle><circle r="4" cx="609" cy="664" opacity="0.28"></circle><circle r="4" cx="449" cy="511" opacity="0.18"></circle><circle r="4" cx="448" cy="289" opacity="0.48"></circle><circle r="4" cx="607" cy="134" opacity="0.14"></circle><circle r="4" cx="830" cy="139" opacity="0.46"></circle><circle r="4" cx="982" cy="303" opacity="0.77"></circle><circle r="4" cx="970" cy="527" opacity="0.52"></circle><circle r="4" cx="800" cy="675" opacity="0.66"></circle><circle r="4" cx="576" cy="656" opacity="0.79"></circle><circle r="4" cx="432" cy="482" opacity="0.93"></circle><circle r="4" cx="457" cy="256" opacity="0.19"></circle><circle r="4" cx="637" cy="117" opacity="0.83"></circle><circle r="4" cx="863" cy="149" opacity="0.59"></circle><circle r="4" cx="997" cy="334" opacity="0.41"></circle><circle r="4" cx="958" cy="560" opacity="0.86"></circle><circle r="4" cx="769" cy="690" opacity="0.40"></circle><circle r="4" cx="543" cy="644" opacity="0.22"></circle><circle r="4" cx="418" cy="450" opacity="0.68"></circle><circle r="4" cx="471" cy="224" opacity="0.77"></circle><circle r="4" cx="670" cy="104" opacity="0.44"></circle><circle r="4" cx="895" cy="164" opacity="0.31"></circle><circle r="4" cx="1009" cy="367" opacity="0.75"></circle><circle r="4" cx="943" cy="592" opacity="0.54"></circle><circle r="4" cx="735" cy="701" opacity="0.65"></circle><circle r="4" cx="512" cy="628" opacity="0.25"></circle><circle r="4" cx="408" cy="416" opacity="0.79"></circle><circle r="4" cx="488" cy="193" opacity="0.36"></circle><circle r="4" cx="704" cy="95" opacity="0.43"></circle><circle r="4.5" cx="926" cy="182" opacity="0.62"></circle><circle r="4.5" cx="1018" cy="402" opacity="0.56"></circle><circle r="4.5" cx="924" cy="622" opacity="0.12"></circle><circle r="4.5" cx="700" cy="708" opacity="0.49"></circle><circle r="4.5" cx="482" cy="607" opacity="0.66"></circle><circle r="4.5" cx="402" cy="380" opacity="0.23"></circle><circle r="4.5" cx="510" cy="164" opacity="0.70"></circle><circle r="4.5" cx="740" cy="90" opacity="0.61"></circle><circle r="4.5" cx="955" cy="205" opacity="0.72"></circle><circle r="4.5" cx="1022" cy="439" opacity="0.61"></circle><circle r="4.5" cx="900" cy="650" opacity="0.67"></circle><circle r="4.5" cx="663" cy="711" opacity="0.89"></circle><circle r="4.5" cx="454" cy="583" opacity="0.24"></circle><circle r="4.5" cx="400" cy="343" opacity="0.95"></circle><circle r="4.5" cx="535" cy="136" opacity="0.20"></circle><circle r="4.5" cx="778" cy="89" opacity="0.40"></circle><circle r="4.5" cx="981" cy="231" opacity="0.31"></circle><circle r="4.5" cx="1021" cy="476" opacity="0.56"></circle><circle r="4.5" cx="873" cy="676" opacity="0.37"></circle><circle r="4.5" cx="625" cy="709" opacity="0.19"></circle><circle r="4.5" cx="429" cy="555" opacity="0.68"></circle><circle r="4.5" cx="403" cy="305" opacity="0.31"></circle><circle r="4.5" cx="564" cy="112" opacity="0.52"></circle><circle r="4.5" cx="816" cy="93" opacity="0.20"></circle><circle r="4.5" cx="1005" cy="261" opacity="0.68"></circle><circle r="4.5" cx="1016" cy="514" opacity="0.41"></circle><circle r="4.5" cx="842" cy="699" opacity="0.93"></circle><circle r="4.5" cx="588" cy="703" opacity="0.18"></circle><circle r="4.5" cx="407" cy="523" opacity="0.91"></circle><circle r="4.5" cx="410" cy="267" opacity="0.68"></circle><circle r="4.5" cx="596" cy="91" opacity="0.81"></circle><circle r="4.5" cx="853" cy="102" opacity="0.94"></circle><circle r="4.5" cx="1025" cy="294" opacity="0.62"></circle><circle r="4.5" cx="1007" cy="552" opacity="0.28"></circle><circle r="4.5" cx="808" cy="718" opacity="0.49"></circle><circle r="4.5" cx="550" cy="692" opacity="0.58"></circle><circle r="4.5" cx="388" cy="488" opacity="0.63"></circle><circle r="4.5" cx="422" cy="230" opacity="0.86"></circle><circle r="4.5" cx="632" cy="73" opacity="0.32"></circle><circle r="4.5" cx="891" cy="115" opacity="0.19"></circle><circle r="4.5" cx="1041" cy="330" opacity="0.24"></circle><circle r="4.5" cx="992" cy="589" opacity="0.88"></circle><circle r="4.5" cx="772" cy="734" opacity="0.45"></circle><circle r="4.5" cx="513" cy="677" opacity="0.41"></circle><circle r="4.5" cx="374" cy="451" opacity="0.22"></circle><circle r="4.5" cx="439" cy="193" opacity="0.29"></circle><circle r="4.5" cx="670" cy="60" opacity="0.22"></circle><circle r="4.5" cx="927" cy="133" opacity="0.76"></circle><circle r="4.5" cx="1054" cy="368" opacity="0.69"></circle><circle r="4.5" cx="973" cy="624" opacity="0.43"></circle><circle r="4.5" cx="733" cy="745" opacity="0.72"></circle><circle r="4.5" cx="478" cy="657" opacity="0.21"></circle><circle r="4.5" cx="364" cy="412" opacity="0.27"></circle><circle r="4.5" cx="460" cy="159" opacity="0.46"></circle><circle r="4.5" cx="709" cy="51" opacity="0.59"></circle><circle r="4.5" cx="961" cy="155" opacity="0.49"></circle><circle r="4.5" cx="1061" cy="409" opacity="0.57"></circle><circle r="4.5" cx="949" cy="658" opacity="0.40"></circle><circle r="4.5" cx="692" cy="752" opacity="0.16"></circle><circle r="4.5" cx="445" cy="632" opacity="0.34"></circle><circle r="4.5" cx="358" cy="371" opacity="0.92"></circle><circle r="4.5" cx="486" cy="126" opacity="0.33"></circle><circle r="4.5" cx="751" cy="47" opacity="0.96"></circle><circle r="4.5" cx="993" cy="182" opacity="0.39"></circle><circle r="4.5" cx="1064" cy="450" opacity="0.33"></circle><circle r="4.5" cx="922" cy="689" opacity="0.42"></circle><circle r="4.5" cx="650" cy="753" opacity="0.52"></circle><circle r="4.5" cx="414" cy="603" opacity="0.92"></circle><circle r="4.5" cx="358" cy="328" opacity="0.84"></circle><circle r="4.5" cx="516" cy="96" opacity="0.50"></circle><circle r="4.5" cx="793" cy="48" opacity="0.92"></circle><circle r="4.5" cx="1022" cy="213" opacity="0.81"></circle><circle r="4.5" cx="1062" cy="493" opacity="0.47"></circle><circle r="4.5" cx="890" cy="717" opacity="0.17"></circle><circle r="4.5" cx="607" cy="750" opacity="0.66"></circle><circle r="4.5" cx="387" cy="570" opacity="0.48"></circle><circle r="4.5" cx="363" cy="286" opacity="0.33"></circle><circle r="4.5" cx="550" cy="70" opacity="0.33"></circle><circle r="4.5" cx="836" cy="54" opacity="0.33"></circle><circle r="4.5" cx="1047" cy="248" opacity="0.81"></circle><circle r="4.5" cx="1055" cy="536" opacity="0.83"></circle><circle r="4.5" cx="854" cy="742" opacity="0.51"></circle><circle r="4.5" cx="565" cy="741" opacity="0.55"></circle><circle r="4.5" cx="363" cy="533" opacity="0.55"></circle><circle r="4.5" cx="373" cy="243" opacity="0.32"></circle><circle r="4.5" cx="587" cy="47" opacity="0.22"></circle><circle r="4.5" cx="878" cy="65" opacity="0.96"></circle><circle r="4.5" cx="1069" cy="286" opacity="0.71"></circle><circle r="4.5" cx="1043" cy="578" opacity="0.20"></circle><circle r="4.5" cx="815" cy="762" opacity="0.13"></circle><circle r="4.5" cx="523" cy="728" opacity="0.29"></circle><circle r="4.5" cx="344" cy="493" opacity="0.16"></circle><circle r="4.5" cx="388" cy="202" opacity="0.87"></circle><circle r="4.5" cx="628" cy="29" opacity="0.66"></circle><circle r="4.5" cx="920" cy="81" opacity="0.99"></circle><circle r="4.5" cx="1086" cy="327" opacity="0.25"></circle><circle r="4.5" cx="1025" cy="619" opacity="0.16"></circle><circle r="4.5" cx="773" cy="778" opacity="0.12"></circle><circle r="4.5" cx="482" cy="709" opacity="0.40"></circle><circle r="4.5" cx="329" cy="451" opacity="0.83"></circle><circle r="4.5" cx="408" cy="161" opacity="0.14"></circle><circle r="4.5" cx="671" cy="15" opacity="0.76"></circle><circle r="4.5" cx="960" cy="103" opacity="0.14"></circle><circle r="4.5" cx="1098" cy="371" opacity="0.98"></circle><circle r="4.5" cx="1002" cy="658" opacity="0.87"></circle><circle r="4.5" cx="729" cy="789" opacity="0.12"></circle><circle r="4.5" cx="443" cy="684" opacity="0.45"></circle><circle r="4.5" cx="320" cy="406" opacity="0.76"></circle><circle r="5" cx="433" cy="123" opacity="0.56"></circle><circle r="5" cx="716" cy="7" opacity="0.24"></circle><circle r="5" cx="997" cy="129" opacity="0.38"></circle><circle r="5" cx="1105" cy="417" opacity="0.63"></circle><circle r="5" cx="974" cy="695" opacity="0.12"></circle><circle r="5" cx="683" cy="795" opacity="0.69"></circle><circle r="5" cx="407" cy="655" opacity="0.34"></circle><circle r="5" cx="315" cy="360" opacity="0.74"></circle><circle r="5" cx="464" cy="88" opacity="0.30"></circle><circle r="5" cx="763" cy="4" opacity="0.44"></circle><circle r="5" cx="1032" cy="161" opacity="0.25"></circle><circle r="5" cx="1107" cy="464" opacity="0.25"></circle><circle r="5" cx="942" cy="729" opacity="0.41"></circle><circle r="5" cx="636" cy="795" opacity="0.64"></circle><circle r="5" cx="374" cy="622" opacity="0.49"></circle><circle r="5" cx="316" cy="313" opacity="0.34"></circle><circle r="5" cx="498" cy="55" opacity="0.42"></circle><circle r="5" cx="810" cy="7" opacity="0.82"></circle><circle r="5" cx="1063" cy="197" opacity="0.14"></circle><circle r="5" cx="1103" cy="511" opacity="0.76"></circle><circle r="5" cx="905" cy="759" opacity="0.16"></circle><circle r="5" cx="588" cy="790" opacity="0.35"></circle><circle r="5" cx="345" cy="584" opacity="0.69"></circle><circle r="5" cx="323" cy="265" opacity="0.44"></circle><circle r="5" cx="537" cy="27" opacity="0.44"></circle><circle r="5" cx="858" cy="15" opacity="0.14"></circle><circle r="5" cx="1090" cy="236" opacity="0.94"></circle><circle r="5" cx="1093" cy="558" opacity="0.28"></circle><circle r="5" cx="864" cy="785" opacity="0.23"></circle><circle r="5" cx="541" cy="779" opacity="0.41"></circle><circle r="5" cx="320" cy="542" opacity="0.42"></circle><circle r="5" cx="336" cy="218" opacity="0.26"></circle><circle r="5" cx="580" cy="3" opacity="0.66"></circle><circle r="5" cx="905" cy="29" opacity="0.87"></circle><circle r="5" cx="1113" cy="280" opacity="0.63"></circle><circle r="5" cx="1078" cy="605" opacity="0.34"></circle><circle r="5" cx="820" cy="807" opacity="0.79"></circle><circle r="5" cx="495" cy="762" opacity="0.34"></circle><circle r="5" cx="300" cy="497" opacity="0.44"></circle><circle r="5" cx="354" cy="172" opacity="0.82"></circle><circle r="5" cx="626" cy="-16" opacity="0.99"></circle><circle r="5" cx="950" cy="49" opacity="0.79"></circle><circle r="5" cx="1130" cy="327" opacity="0.99"></circle><circle r="5" cx="1057" cy="650" opacity="0.18"></circle><circle r="5" cx="772" cy="823" opacity="0.49"></circle><circle r="5" cx="450" cy="739" opacity="0.33"></circle><circle r="5" cx="285" cy="449" opacity="0.48"></circle><circle r="5" cx="378" cy="128" opacity="0.95"></circle><circle r="5" cx="674" cy="-29" opacity="0.90"></circle><circle r="5" cx="994" cy="74" opacity="0.97"></circle><circle r="5" cx="1143" cy="376" opacity="0.15"></circle><circle r="5" cx="1030" cy="693" opacity="0.59"></circle><circle r="5" cx="723" cy="834" opacity="0.26"></circle><circle r="5" cx="408" cy="711" opacity="0.56"></circle><circle r="5" cx="276" cy="399" opacity="0.19"></circle><circle r="5" cx="408" cy="87" opacity="0.36"></circle><circle r="5" cx="725" cy="-37" opacity="0.57"></circle><circle r="5" cx="1034" cy="105" opacity="0.32"></circle><circle r="5" cx="1149" cy="426" opacity="0.78"></circle><circle r="5" cx="998" cy="733" opacity="0.66"></circle><circle r="5" cx="672" cy="838" opacity="0.89"></circle><circle r="5" cx="368" cy="678" opacity="0.44"></circle><circle r="5" cx="272" cy="348" opacity="0.56"></circle><circle r="5" cx="442" cy="48" opacity="0.94"></circle><circle r="5" cx="776" cy="-39" opacity="0.83"></circle><circle r="5" cx="1072" cy="141" opacity="0.29"></circle><circle r="5" cx="1149" cy="478" opacity="0.41"></circle><circle r="5" cx="960" cy="769" opacity="0.41"></circle><circle r="5" cx="620" cy="837" opacity="0.18"></circle><circle r="5" cx="333" cy="639" opacity="0.51"></circle><circle r="5" cx="275" cy="295" opacity="0.98"></circle><circle r="5" cx="482" cy="14" opacity="0.23"></circle><circle r="5" cx="829" cy="-34" opacity="0.74"></circle><circle r="5" cx="1105" cy="182" opacity="0.78"></circle><circle r="5" cx="1143" cy="531" opacity="0.30"></circle><circle r="5" cx="919" cy="802" opacity="0.53"></circle><circle r="5" cx="567" cy="830" opacity="0.67"></circle><circle r="5" cx="302" cy="596" opacity="0.78"></circle><circle r="5" cx="284" cy="243" opacity="0.63"></circle><circle r="5" cx="526" cy="-16" opacity="0.66"></circle><circle r="5" cx="881" cy="-23" opacity="0.26"></circle><circle r="5" cx="1134" cy="227" opacity="0.42"></circle><circle r="5" cx="1131" cy="583" opacity="0.15"></circle><circle r="5" cx="873" cy="829" opacity="0.86"></circle><circle r="5" cx="515" cy="816" opacity="0.77"></circle><circle r="5" cx="276" cy="550" opacity="0.34"></circle><circle r="5" cx="300" cy="192" opacity="0.66"></circle><circle r="5" cx="574" cy="-41" opacity="0.37"></circle><circle r="5" cx="932" cy="-6" opacity="0.16"></circle><circle r="5" cx="1157" cy="275" opacity="0.83"></circle><circle r="5" cx="1112" cy="634" opacity="0.22"></circle><circle r="5" cx="823" cy="851" opacity="0.57"></circle><circle r="5" cx="465" cy="795" opacity="0.54"></circle><circle r="5" cx="255" cy="499" opacity="0.21"></circle><circle r="5" cx="322" cy="142" opacity="0.50"></circle><circle r="5" cx="625" cy="-60" opacity="0.36"></circle><circle r="5" cx="982" cy="17" opacity="0.92"></circle><circle r="5" cx="1175" cy="327" opacity="0.63"></circle><circle r="5" cx="1087" cy="683" opacity="0.99"></circle><circle r="5" cx="770" cy="868" opacity="0.72"></circle><circle r="5" cx="416" cy="769" opacity="0.54"></circle><circle r="5" cx="240" cy="446" opacity="0.25"></circle><circle r="5" cx="349" cy="94" opacity="0.13"></circle><circle r="5" cx="679" cy="-73" opacity="0.10"></circle><circle r="5" cx="1029" cy="46" opacity="0.96"></circle><circle r="5" cx="1187" cy="381" opacity="0.91"></circle><circle r="5" cx="1056" cy="729" opacity="0.70"></circle><circle r="5.5" cx="716" cy="878" opacity="0.57"></circle><circle r="5.5" cx="371" cy="737" opacity="0.82"></circle><circle r="5.5" cx="232" cy="391" opacity="0.39"></circle><circle r="5.5" cx="383" cy="49" opacity="0.17"></circle><circle r="5.5" cx="734" cy="-80" opacity="0.82"></circle><circle r="5.5" cx="1073" cy="82" opacity="0.58"></circle><circle r="5.5" cx="1192" cy="438" opacity="0.44"></circle><circle r="5.5" cx="1020" cy="772" opacity="0.56"></circle><circle r="5.5" cx="659" cy="881" opacity="0.39"></circle><circle r="5.5" cx="329" cy="699" opacity="0.31"></circle><circle r="5.5" cx="230" cy="334" opacity="0.11"></circle><circle r="5.5" cx="423" cy="8" opacity="0.48"></circle><circle r="5.5" cx="791" cy="-81" opacity="0.76"></circle><circle r="5.5" cx="1112" cy="122" opacity="0.52"></circle><circle r="5.5" cx="1191" cy="495" opacity="0.16"></circle><circle r="5.5" cx="978" cy="811" opacity="0.21"></circle><circle r="5.5" cx="602" cy="878" opacity="0.56"></circle><circle r="5.5" cx="291" cy="656" opacity="0.38"></circle><circle r="5.5" cx="234" cy="277" opacity="0.80"></circle><circle r="5.5" cx="467" cy="-28" opacity="0.48"></circle><circle r="5.5" cx="849" cy="-74" opacity="0.69"></circle><circle r="5.5" cx="1148" cy="168" opacity="1.00"></circle><circle r="5.5" cx="1183" cy="552" opacity="0.12"></circle><circle r="5.5" cx="931" cy="845" opacity="0.79"></circle><circle r="5.5" cx="545" cy="868" opacity="0.68"></circle><circle r="5.5" cx="259" cy="608" opacity="0.75"></circle><circle r="5.5" cx="246" cy="220" opacity="0.27"></circle><circle r="5.5" cx="516" cy="-60" opacity="0.24"></circle><circle r="5.5" cx="905" cy="-61" opacity="0.42"></circle><circle r="5.5" cx="1178" cy="218" opacity="0.43"></circle><circle r="5.5" cx="1167" cy="608" opacity="0.23"></circle><circle r="5.5" cx="880" cy="873" opacity="0.59"></circle><circle r="5.5" cx="489" cy="852" opacity="0.65"></circle><circle r="5.5" cx="231" cy="555" opacity="0.75"></circle><circle r="5.5" cx="265" cy="164" opacity="0.34"></circle><circle r="5.5" cx="569" cy="-86" opacity="0.13"></circle><circle r="5.5" cx="961" cy="-41" opacity="0.69"></circle><circle r="5.5" cx="1202" cy="272" opacity="0.29"></circle><circle r="5.5" cx="1146" cy="664" opacity="0.11"></circle><circle r="5.5" cx="825" cy="896" opacity="0.38"></circle><circle r="5.5" cx="434" cy="828" opacity="0.99"></circle><circle r="5.5" cx="210" cy="500" opacity="0.12"></circle><circle r="5.5" cx="290" cy="110" opacity="0.74"></circle><circle r="5.5" cx="626" cy="-105" opacity="0.97"></circle><circle r="5.5" cx="1014" cy="-14" opacity="0.43"></circle><circle r="5.5" cx="1220" cy="329" opacity="0.66"></circle><circle r="5.5" cx="1117" cy="716" opacity="0.63"></circle><circle r="5.5" cx="767" cy="912" opacity="0.48"></circle><circle r="5.5" cx="382" cy="798" opacity="0.52"></circle><circle r="5.5" cx="196" cy="441" opacity="0.62"></circle><circle r="5.5" cx="322" cy="58" opacity="0.19"></circle><circle r="5.5" cx="685" cy="-118" opacity="0.16"></circle><circle r="5.5" cx="1065" cy="20" opacity="0.36"></circle><circle r="5.5" cx="1231" cy="389" opacity="0.36"></circle><circle r="5.5" cx="1082" cy="766" opacity="0.64"></circle><circle r="5.5" cx="707" cy="922" opacity="0.44"></circle><circle r="5.5" cx="333" cy="761" opacity="0.18"></circle><circle r="5.5" cx="188" cy="381" opacity="0.76"></circle><circle r="5.5" cx="360" cy="11" opacity="0.40"></circle><circle r="5.5" cx="746" cy="-124" opacity="1.00"></circle><circle r="5.5" cx="1112" cy="60" opacity="0.38"></circle><circle r="5.5" cx="1235" cy="450" opacity="0.62"></circle><circle r="5.5" cx="1041" cy="812" opacity="0.63"></circle><circle r="5.5" cx="645" cy="924" opacity="0.31"></circle><circle r="5.5" cx="289" cy="718" opacity="0.47"></circle><circle r="5.5" cx="187" cy="319" opacity="0.68"></circle><circle r="5.5" cx="404" cy="-33" opacity="0.42"></circle><circle r="5.5" cx="808" cy="-123" opacity="0.90"></circle><circle r="5.5" cx="1154" cy="105" opacity="0.57"></circle><circle r="5.5" cx="1232" cy="512" opacity="0.45"></circle><circle r="5.5" cx="994" cy="853" opacity="0.38"></circle><circle r="5.5" cx="583" cy="919" opacity="0.12"></circle><circle r="5.5" cx="249" cy="670" opacity="0.66"></circle><circle r="5.5" cx="194" cy="257" opacity="0.93"></circle><circle r="5.5" cx="454" cy="-71" opacity="0.47"></circle><circle r="5.5" cx="870" cy="-114" opacity="0.49"></circle><circle r="5.5" cx="1191" cy="156" opacity="0.32"></circle><circle r="5.5" cx="1221" cy="574" opacity="0.86"></circle><circle r="5.5" cx="942" cy="888" opacity="0.69"></circle><circle r="5.5" cx="521" cy="907" opacity="0.29"></circle><circle r="5.5" cx="215" cy="617" opacity="0.90"></circle><circle r="5.5" cx="209" cy="195" opacity="0.65"></circle><circle r="5.5" cx="508" cy="-104" opacity="0.16"></circle><circle r="5.5" cx="931" cy="-98" opacity="0.83"></circle><circle r="5.5" cx="1222" cy="211" opacity="0.56"></circle><circle r="5.5" cx="1203" cy="635" opacity="0.81"></circle><circle r="5.5" cx="885" cy="918" opacity="0.92"></circle><circle r="5.5" cx="461" cy="887" opacity="0.88"></circle><circle r="5.5" cx="187" cy="560" opacity="0.57"></circle><circle r="5.5" cx="230" cy="135" opacity="0.98"></circle><circle r="5.5" cx="566" cy="-130" opacity="0.65"></circle><circle r="5.5" cx="991" cy="-74" opacity="0.71"></circle><circle r="5.5" cx="1247" cy="270" opacity="0.88"></circle><circle r="5.5" cx="1178" cy="695" opacity="0.95"></circle><circle r="5.5" cx="825" cy="941" opacity="0.98"></circle><circle r="5.5" cx="402" cy="860" opacity="0.22"></circle><circle r="5.5" cx="165" cy="499" opacity="0.37"></circle><circle r="5.5" cx="259" cy="77" opacity="0.63"></circle><circle r="5.5" cx="628" cy="-150" opacity="0.33"></circle><circle r="5.5" cx="1048" cy="-43" opacity="0.34"></circle><circle r="5.5" cx="1265" cy="333" opacity="0.62"></circle><circle r="5.5" cx="1145" cy="751" opacity="0.84"></circle><circle r="5.5" cx="762" cy="957" opacity="0.71"></circle><circle r="5.5" cx="346" cy="825" opacity="0.93"></circle><circle r="5.5" cx="151" cy="435" opacity="0.90"></circle><circle r="5.5" cx="295" cy="22" opacity="0.45"></circle><circle r="5.5" cx="693" cy="-162" opacity="0.34"></circle><circle r="6" cx="1102" cy="-6" opacity="0.80"></circle><circle r="6" cx="1275" cy="398" opacity="0.18"></circle><circle r="6" cx="1106" cy="804" opacity="0.50"></circle><circle r="6" cx="696" cy="966" opacity="0.31"></circle><circle r="6" cx="295" cy="784" opacity="0.29"></circle><circle r="6" cx="144" cy="369" opacity="0.43"></circle><circle r="6" cx="338" cy="-29" opacity="0.68"></circle><circle r="6" cx="759" cy="-167" opacity="0.22"></circle><circle r="6" cx="1152" cy="39" opacity="0.11"></circle><circle r="6" cx="1278" cy="465" opacity="0.83"></circle><circle r="6" cx="1060" cy="852" opacity="0.98"></circle><circle r="6" cx="630" cy="966" opacity="0.35"></circle><circle r="6" cx="247" cy="737" opacity="0.25"></circle><circle r="6" cx="146" cy="302" opacity="0.48"></circle><circle r="6" cx="387" cy="-75" opacity="0.90"></circle><circle r="6" cx="826" cy="-164" opacity="0.36"></circle><circle r="6" cx="1196" cy="89" opacity="0.47"></circle><circle r="6" cx="1273" cy="532" opacity="0.81"></circle><circle r="6" cx="1008" cy="895" opacity="0.10"></circle><circle r="6" cx="563" cy="959" opacity="0.39"></circle><circle r="6" cx="206" cy="684" opacity="0.99"></circle><circle r="6" cx="155" cy="235" opacity="0.88"></circle><circle r="6" cx="442" cy="-115" opacity="0.58"></circle><circle r="6" cx="893" cy="-153" opacity="0.71"></circle><circle r="6" cx="1235" cy="145" opacity="0.71"></circle><circle r="6" cx="1260" cy="598" opacity="0.15"></circle><circle r="6" cx="951" cy="933" opacity="0.72"></circle><circle r="6" cx="496" cy="944" opacity="0.22"></circle><circle r="6" cx="170" cy="625" opacity="0.25"></circle><circle r="6" cx="172" cy="169" opacity="0.15"></circle><circle r="6" cx="501" cy="-149" opacity="0.42"></circle><circle r="6" cx="959" cy="-134" opacity="0.27"></circle><circle r="6" cx="1267" cy="206" opacity="0.76"></circle><circle r="6" cx="1239" cy="664" opacity="0.36"></circle><circle r="6" cx="889" cy="963" opacity="0.65"></circle><circle r="6" cx="431" cy="921" opacity="0.59"></circle><circle r="6" cx="142" cy="562" opacity="0.67"></circle><circle r="6" cx="197" cy="104" opacity="0.67"></circle><circle r="6" cx="565" cy="-176" opacity="0.21"></circle><circle r="6" cx="1022" cy="-106" opacity="0.45"></circle><circle r="6" cx="1292" cy="270" opacity="0.74"></circle><circle r="6" cx="1210" cy="727" opacity="0.48"></circle><circle r="6" cx="824" cy="986" opacity="0.42"></circle><circle r="6" cx="369" cy="890" opacity="0.96"></circle><circle r="6" cx="120" cy="496" opacity="0.96"></circle><circle r="6" cx="230" cy="43" opacity="0.76"></circle><circle r="6" cx="632" cy="-195" opacity="0.77"></circle><circle r="6" cx="1083" cy="-72" opacity="0.89"></circle><circle r="6" cx="1310" cy="338" opacity="0.27"></circle><circle r="6" cx="1173" cy="787" opacity="0.39"></circle><circle r="6" cx="755" cy="1002" opacity="0.77"></circle><circle r="6" cx="310" cy="852" opacity="0.92"></circle><circle r="6" cx="107" cy="427" opacity="0.84"></circle><circle r="6" cx="270" cy="-16" opacity="0.74"></circle></g></svg>